<?xml version="1.0" encoding="UTF-8"?>
<!DOCTYPE svg PUBLIC "-//W3C//DTD SVG 1.1//EN" "http://www.w3.org/Graphics/SVG/1.1/DTD/svg11.dtd">
<!-- Creator: CorelDRAW -->
<svg xmlns="http://www.w3.org/2000/svg" xml:space="preserve" width="297mm" height="210mm" version="1.1" style="shape-rendering:geometricPrecision; text-rendering:geometricPrecision; image-rendering:optimizeQuality; fill-rule:evenodd; clip-rule:evenodd"
viewBox="0 0 29700 21000"
 xmlns:xlink="http://www.w3.org/1999/xlink"
 xmlns:xodm="http://www.corel.com/coreldraw/odm/2003">
 <defs>
  <style type="text/css">
   <![CDATA[
    .fil0 {fill:white}
    .fil2 {fill:#FF002D}
    .fil3 {fill:white;fill-rule:nonzero}
    .fil1 {fill:#091A30;fill-rule:nonzero}
   ]]>
  </style>
 </defs>
 <g id="Camada_x0020_1">
  <metadata id="CorelCorpID_0Corel-Layer"/>
  <rect class="fil0" x="2640.96" y="3063.56" width="24412.22" height="14887.22"/>
  <rect class="fil1" x="14847.07" y="3063.56" width="12206.11" height="7443.61"/>
  <rect class="fil0" x="2640.96" y="3063.56" width="12206.11" height="7443.61"/>
  <rect class="fil2" x="14847.07" y="10507.17" width="12206.11" height="7443.61"/>
  <path class="fil3" d="M19869.45 6426.27l0 41.93 -439.81 0c0.62,9.32 2.02,18.95 4.19,28.89 2.18,9.94 8.55,25 19.11,45.19 10.56,20.19 24.22,37.43 41,51.72 32.92,26.71 70.81,40.38 113.68,41l20.5 0c31.06,0 60.1,-7.77 87.12,-23.3 27.02,-15.53 48.3,-36.34 63.83,-62.43l77.34 35.41c-22.98,41.62 -54.98,74.54 -95.98,98.77 -41,24.23 -85.1,36.34 -132.31,36.34l-20.5 0c-72.06,0 -133.72,-25.47 -184.97,-76.41 -51.25,-50.93 -76.87,-112.75 -76.87,-185.43l0 -24.22c0,-72.06 25.62,-133.72 76.87,-184.97 51.25,-51.25 112.91,-76.87 184.97,-76.87l7.45 0c70.2,0 130.14,24.84 179.84,74.54 49.7,49.7 74.54,109.65 74.54,179.84zm-434.22 -42.86l345.7 0c-12.42,-42.87 -36.96,-75.79 -73.61,-98.77 -27.33,-18.02 -58.08,-27.34 -92.25,-27.96l-7.45 0c-34.17,0.62 -65.54,9.94 -94.12,27.96 -37.27,22.98 -63.36,55.9 -78.27,98.77zm774.34 56.84l218.04 280.47 -108.09 0 -169.59 -218.97 -158.41 218.97 -105.29 0 209.66 -289.79 -168.66 -258.11 101.57 0 127.65 194.75 133.25 -194.75 102.5 0 -182.63 267.43zm551.63 -268.36c72.06,0 133.71,25.62 184.96,76.87 51.25,51.25 76.87,112.91 76.87,184.97l0 24.22c0,72.68 -25.62,134.5 -76.87,185.43 -51.25,50.94 -112.9,76.41 -184.96,76.41 -54.05,0 -103.43,-15.22 -148.16,-45.66l-28.89 -19.57 0 138.85c0,22.36 -4.97,43.48 -14.9,63.36 -9.95,19.88 -24.23,36.03 -42.87,48.45l-40.07 -76.41c8.7,-9.94 13.05,-21.74 13.05,-35.4l0 -621.52 261.84 0zm177.04 286.06l0 -24.22c0,-48.46 -17.24,-90.08 -51.72,-124.87 -34.47,-34.78 -76.25,-52.18 -125.32,-52.18l-177.05 0 0 201.27c0,49.08 17.4,90.85 52.18,125.33 34.79,34.48 76.57,51.72 125.33,51.72 48.77,0 90.39,-17.24 124.86,-51.72 34.48,-34.48 51.72,-76.25 51.72,-125.33zm682.08 -31.68l0 41.93 -439.81 0c0.62,9.32 2.02,18.95 4.19,28.89 2.18,9.94 8.55,25 19.1,45.19 10.56,20.19 24.23,37.43 41.01,51.72 32.92,26.71 70.81,40.38 113.67,41l20.5 0c31.06,0 60.11,-7.77 87.13,-23.3 27.02,-15.53 48.3,-36.34 63.83,-62.43l77.34 35.41c-22.98,41.62 -54.98,74.54 -95.98,98.77 -41,24.23 -85.1,36.34 -132.32,36.34l-20.5 0c-72.06,0 -133.71,-25.47 -184.96,-76.41 -51.25,-50.93 -76.88,-112.75 -76.88,-185.43l0 -24.22c0,-72.06 25.63,-133.72 76.88,-184.97 51.25,-51.25 112.9,-76.87 184.96,-76.87l7.46 0c70.19,0 130.14,24.84 179.84,74.54 49.7,49.7 74.54,109.65 74.54,179.84zm-434.22 -42.86l345.7 0c-12.42,-42.87 -36.96,-75.79 -73.61,-98.77 -27.33,-18.02 -58.08,-27.34 -92.25,-27.96l-7.46 0c-34.16,0.62 -65.53,9.94 -94.11,27.96 -37.27,22.98 -63.36,55.9 -78.27,98.77zm785.52 -213.38l16.77 0 0 84.79 -16.77 0c-46.6,0 -86.66,16.62 -120.21,49.85 -33.54,33.24 -50.32,73.46 -50.32,120.67l0 181.7c0,22.37 -4.97,43.33 -14.91,62.9 -9.93,19.57 -24.22,35.87 -42.86,48.92l-40.07 -77.34c8.7,-9.94 13.05,-21.43 13.05,-34.48l0 -433.29 84.79 0 0 58.71 28.89 -19.57c42.86,-28.58 90.08,-42.86 141.64,-42.86zm417.45 464.97l16.77 0 0 85.72 -16.77 0c-70.2,0 -130.3,-25 -180.31,-75 -50,-50.01 -75.01,-110.12 -75.01,-180.31l0 -130.46 -81.07 0 0 -84.79 81.07 0 0 -68.02c0,-13.05 -4.35,-24.54 -13.04,-34.48l40.06 -77.34c18.02,13.05 32.15,29.35 42.4,48.92 10.25,19.57 15.38,40.53 15.38,62.9l0 68.02 138.84 0 0 84.79 -138.84 0 0 130.46c0,46.59 16.61,86.5 49.85,119.74 33.23,33.23 73.46,49.85 120.67,49.85zm205.93 0l419.31 0 0 84.79 -533.93 0 0 -95.97 405.34 -366.21 -413.72 0 0 -84.79 532.06 0 0 93.18 -409.06 369zm910.38 -462.18l90.38 0 -205 559.08 -13.97 36.35c-20.5,56.53 -57.78,97.22 -111.82,122.06 -29.2,13.67 -59.33,20.5 -90.39,20.5 -19.25,0 -38.2,-2.79 -56.84,-8.38l28.89 -80.14c9.32,1.86 18.63,2.8 27.95,2.8 26.09,0 50.01,-7.15 71.75,-21.44 21.74,-14.28 37.9,-33.54 48.45,-57.77 1.25,-3.1 2.18,-5.28 2.8,-6.52l1.87 -6.52 -1.87 -8.39 -232.95 -551.63 92.25 0 186.36 440.74 162.14 -440.74z"/>
  <path class="fil3" d="M20781.21 7037.6l29.64 0 0 211.67 -29.64 0 0 -211.67zm270.04 0l0 211.67 -27.82 0 -122.47 -164.5 0 164.5 -29.03 0 0 -211.67 27.52 0 122.77 164.5 0 -164.5 29.03 0zm107.04 27.51l-69.55 0 0 -27.51 168.73 0 0 27.51 -69.55 0 0 184.16 -29.63 0 0 -184.16zm286.06 156.94l0 27.22 -149.08 0 0 -211.67 146.05 0 0 27.21 -116.42 0 0 64.11 110.07 0 0 26.91 -110.07 0 0 66.22 119.45 0zm192.32 -0.3l0 27.52 -140.31 0 0 -211.67 29.63 0 0 184.15 110.68 0zm40.21 -184.15l29.64 0 0 211.67 -29.64 0 0 -211.67zm275.78 97.37l0 84.36c-8.26,10.69 -19.8,19.05 -34.62,25.1 -14.82,6.05 -31.4,9.07 -49.75,9.07 -22.78,0 -42.63,-4.63 -59.57,-13.91 -16.93,-9.27 -29.98,-22.22 -39.16,-38.85 -9.17,-16.64 -13.75,-35.53 -13.75,-56.7 0,-21.57 4.63,-40.72 13.91,-57.46 9.27,-16.73 22.12,-29.78 38.55,-39.16 16.43,-9.37 35.13,-14.06 56.09,-14.06 18.55,0 35.03,3.63 49.44,10.89 14.42,7.26 25.86,17.44 34.33,30.54l-22.68 16.33c-6.45,-9.68 -14.87,-17.09 -25.25,-22.23 -10.39,-5.14 -22.23,-7.71 -35.53,-7.71 -15.53,0 -29.13,3.43 -40.83,10.28 -11.69,6.86 -20.76,16.59 -27.21,29.19 -6.45,12.59 -9.68,27.16 -9.68,43.69 0,16.93 3.33,31.5 9.98,43.7 6.65,12.19 16.08,21.57 28.27,28.12 12.2,6.55 26.56,9.83 43.09,9.83 12.1,0 23.04,-1.62 32.81,-4.84 9.78,-3.23 17.49,-7.56 23.14,-13.01l0 -46.56 -54.43 0 0 -26.61 82.85 0zm199.58 87.08l0 27.22 -149.08 0 0 -211.67 146.05 0 0 27.21 -116.42 0 0 64.11 110.07 0 0 26.91 -110.07 0 0 66.22 119.45 0zm-51.41 -209.85l-26.31 -28.73 -26.3 28.73 -28.73 0 41.73 -45.36 26.61 0 41.73 45.36 -28.73 0zm282.74 25.4l0 211.67 -27.82 0 -122.47 -164.5 0 164.5 -29.03 0 0 -211.67 27.52 0 122.77 164.5 0 -164.5 29.03 0zm155.42 215.9c-20.76,0 -39.26,-4.78 -55.49,-14.36 -16.22,-9.58 -28.87,-22.73 -37.95,-39.46 -9.07,-16.73 -13.6,-35.48 -13.6,-56.25 0,-20.56 4.53,-39.21 13.6,-55.94 9.08,-16.73 21.78,-29.94 38.1,-39.61 16.33,-9.68 34.78,-14.52 55.34,-14.52 20.36,0 38.71,4.69 55.04,14.06 16.33,9.38 28.93,23.04 37.8,40.98l-24.8 13.91c-7.06,-13.71 -16.23,-23.99 -27.52,-30.85 -11.29,-6.85 -24.19,-10.28 -38.7,-10.28 -15.32,0 -28.88,3.53 -40.68,10.59 -11.79,7.05 -20.91,16.83 -27.36,29.33 -6.45,12.5 -9.68,26.61 -9.68,42.33 0,15.73 3.23,29.84 9.68,42.34 6.45,12.5 15.57,22.27 27.36,29.33 11.8,7.06 25.36,10.58 40.68,10.58 14.51,0 27.46,-3.42 38.85,-10.28 11.39,-6.85 20.62,-17.13 27.67,-30.84l24.5 13.91c-8.87,17.94 -21.47,31.6 -37.8,40.97 -16.33,9.38 -34.68,14.06 -55.04,14.06zm134.26 -215.9l29.64 0 0 211.67 -29.64 0 0 -211.67zm218.03 156.03l-98.89 0 -21.77 55.64 -30.84 0 85.57 -211.67 33.27 0 85.27 211.67 -30.84 0 -21.77 -55.64zm-10.29 -26.31l-39 -100.69 -39.32 100.69 78.32 0zm-2053.51 279.71l-69.55 0 0 -27.51 168.73 0 0 27.51 -69.55 0 0 184.16 -29.63 0 0 -184.16zm198.67 101.61l-32.06 0 0 82.55 -29.63 0 0 -211.67 88.3 0c22.58,0 40.21,5.79 52.92,17.38 12.7,11.6 19.05,27.57 19.05,47.93 0,18.95 -5.6,33.92 -16.79,44.91 -11.19,10.98 -26.96,17.18 -47.32,18.6l68.94 82.85 -35.68 0 -67.73 -82.55zm-32.06 -26.61l56.25 0c15.32,0 26.36,-2.98 33.11,-8.92 6.75,-5.95 10.13,-15.37 10.13,-28.28 0,-13.1 -3.43,-22.73 -10.28,-28.88 -6.86,-6.14 -17.84,-9.22 -32.96,-9.22l-56.25 0 0 75.3zm181.13 -102.51l29.64 0 0 211.67 -29.64 0 0 -211.67zm211.37 102.51c13.91,3.22 24.65,9.27 32.21,18.14 7.56,8.87 11.34,20.16 11.34,33.87 0,17.34 -6,31.19 -18,41.58 -11.99,10.38 -28.37,15.57 -49.13,15.57l-97.07 0 0 -211.67 89.81 0c20.36,0 36.54,4.99 48.53,14.97 12,9.97 17.99,23.23 17.99,39.76 0,11.69 -3.07,21.62 -9.22,29.79 -6.15,8.16 -14.97,14.16 -26.46,17.99zm-91.02 -75.9l0 63.8 58.06 0c12.7,0 22.28,-2.77 28.73,-8.31 6.45,-5.55 9.68,-13.46 9.68,-23.74 0,-10.28 -3.23,-18.15 -9.68,-23.59 -6.45,-5.44 -16.03,-8.16 -28.73,-8.16l-58.06 0zm65.32 158.45c12.7,0 22.28,-2.97 28.73,-8.92 6.45,-5.95 9.67,-14.36 9.67,-25.25 0,-10.89 -3.22,-19.3 -9.67,-25.25 -6.45,-5.95 -16.03,-8.92 -28.73,-8.92l-65.32 0 0 68.34 65.32 0zm201.09 30.84c-27.01,0 -48.23,-7.05 -63.65,-21.16 -15.42,-14.12 -23.13,-33.87 -23.13,-59.27l0 -135.47 29.63 0 0 132.75c0,36.89 19.05,55.33 57.15,55.33 38.1,0 57.15,-18.44 57.15,-55.33l0 -132.75 29.64 0 0 135.47c0,25.4 -7.71,45.15 -23.14,59.27 -15.42,14.11 -36.64,21.16 -63.65,21.16zm191.11 -188.39l-69.55 0 0 -27.51 168.73 0 0 27.51 -69.55 0 0 184.16 -29.63 0 0 -184.16zm236.78 128.52l-98.89 0 -21.77 55.64 -30.84 0 85.57 -211.67 33.27 0 85.27 211.67 -30.84 0 -21.77 -55.64zm-10.29 -26.31l-39 -100.69 -39.32 100.69 78.32 0zm-27.51 -200.48l34.77 0 -39.61 45.36 -29.33 0 34.17 -45.36zm188.69 199.88l-32.06 0 0 82.55 -29.63 0 0 -211.67 88.3 0c22.58,0 40.21,5.79 52.92,17.38 12.7,11.6 19.05,27.57 19.05,47.93 0,18.95 -5.6,33.92 -16.79,44.91 -11.19,10.98 -26.96,17.18 -47.32,18.6l68.94 82.85 -35.68 0 -67.73 -82.55zm-32.06 -26.61l56.25 0c15.32,0 26.36,-2.98 33.11,-8.92 6.75,-5.95 10.13,-15.37 10.13,-28.28 0,-13.1 -3.43,-22.73 -10.28,-28.88 -6.86,-6.14 -17.84,-9.22 -32.96,-9.22l-56.25 0 0 75.3zm181.13 -102.51l29.64 0 0 211.67 -29.64 0 0 -211.67zm218.03 156.03l-98.89 0 -21.77 55.64 -30.84 0 85.57 -211.67 33.27 0 85.27 211.67 -30.84 0 -21.77 -55.64zm-10.29 -26.31l-39 -100.69 -39.32 100.69 78.32 0z"/>
  <polygon class="fil2" points="18304.48,6131.2 18461.2,6131.2 19088.06,6366.28 19088.06,6522.99 18461.2,6758.07 18304.48,6758.07 "/>
  <polygon class="fil2" points="18304.48,5935.31 18461.2,5935.31 19088.06,6170.38 19088.06,6287.92 18461.2,6052.84 18304.48,6052.84 "/>
  <polygon class="fil2" points="19088.06,6718.89 18461.2,6953.96 18304.48,6953.96 18304.48,6836.42 18461.2,6836.42 19088.06,6601.35 "/>
  <path class="fil0" d="M19869.45 13869.88l0 41.93 -439.81 0c0.62,9.32 2.02,18.95 4.19,28.89 2.18,9.94 8.55,25 19.11,45.19 10.56,20.19 24.22,37.43 41,51.72 32.92,26.71 70.81,40.38 113.68,41l20.5 0c31.06,0 60.1,-7.77 87.12,-23.3 27.02,-15.53 48.3,-36.34 63.83,-62.43l77.34 35.41c-22.98,41.62 -54.98,74.54 -95.98,98.77 -41,24.23 -85.1,36.34 -132.31,36.34l-20.5 0c-72.06,0 -133.72,-25.47 -184.97,-76.41 -51.25,-50.93 -76.87,-112.75 -76.87,-185.43l0 -24.22c0,-72.06 25.62,-133.72 76.87,-184.97 51.25,-51.25 112.91,-76.87 184.97,-76.87l7.45 0c70.2,0 130.14,24.84 179.84,74.54 49.7,49.7 74.54,109.65 74.54,179.84zm-434.22 -42.86l345.7 0c-12.42,-42.87 -36.96,-75.79 -73.61,-98.77 -27.33,-18.02 -58.08,-27.34 -92.25,-27.96l-7.45 0c-34.17,0.62 -65.54,9.94 -94.12,27.96 -37.27,22.98 -63.36,55.9 -78.27,98.77zm774.34 56.84l218.04 280.47 -108.09 0 -169.59 -218.97 -158.41 218.97 -105.29 0 209.66 -289.79 -168.66 -258.11 101.57 0 127.65 194.75 133.25 -194.75 102.5 0 -182.63 267.43zm551.63 -268.36c72.06,0 133.71,25.62 184.96,76.87 51.25,51.25 76.87,112.91 76.87,184.97l0 24.22c0,72.68 -25.62,134.5 -76.87,185.43 -51.25,50.94 -112.9,76.41 -184.96,76.41 -54.05,0 -103.43,-15.22 -148.16,-45.66l-28.89 -19.57 0 138.85c0,22.36 -4.97,43.48 -14.9,63.36 -9.95,19.88 -24.23,36.03 -42.87,48.45l-40.07 -76.41c8.7,-9.94 13.05,-21.74 13.05,-35.4l0 -621.52 261.84 0zm177.04 286.06l0 -24.22c0,-48.46 -17.24,-90.08 -51.72,-124.87 -34.47,-34.78 -76.25,-52.18 -125.32,-52.18l-177.05 0 0 201.27c0,49.08 17.4,90.85 52.18,125.33 34.79,34.48 76.57,51.72 125.33,51.72 48.77,0 90.39,-17.24 124.86,-51.72 34.48,-34.48 51.72,-76.25 51.72,-125.33zm682.08 -31.68l0 41.93 -439.81 0c0.62,9.32 2.02,18.95 4.19,28.89 2.18,9.94 8.55,25 19.1,45.19 10.56,20.19 24.23,37.43 41.01,51.72 32.92,26.71 70.81,40.38 113.67,41l20.5 0c31.06,0 60.11,-7.77 87.13,-23.3 27.02,-15.53 48.3,-36.34 63.83,-62.43l77.34 35.41c-22.98,41.62 -54.98,74.54 -95.98,98.77 -41,24.23 -85.1,36.34 -132.32,36.34l-20.5 0c-72.06,0 -133.71,-25.47 -184.96,-76.41 -51.25,-50.93 -76.88,-112.75 -76.88,-185.43l0 -24.22c0,-72.06 25.63,-133.72 76.88,-184.97 51.25,-51.25 112.9,-76.87 184.96,-76.87l7.46 0c70.19,0 130.14,24.84 179.84,74.54 49.7,49.7 74.54,109.65 74.54,179.84zm-434.22 -42.86l345.7 0c-12.42,-42.87 -36.96,-75.79 -73.61,-98.77 -27.33,-18.02 -58.08,-27.34 -92.25,-27.96l-7.46 0c-34.16,0.62 -65.53,9.94 -94.11,27.96 -37.27,22.98 -63.36,55.9 -78.27,98.77zm785.52 -213.38l16.77 0 0 84.79 -16.77 0c-46.6,0 -86.66,16.62 -120.21,49.85 -33.54,33.24 -50.32,73.46 -50.32,120.67l0 181.7c0,22.37 -4.97,43.33 -14.91,62.9 -9.93,19.57 -24.22,35.87 -42.86,48.92l-40.07 -77.34c8.7,-9.94 13.05,-21.43 13.05,-34.48l0 -433.29 84.79 0 0 58.71 28.89 -19.57c42.86,-28.58 90.08,-42.86 141.64,-42.86zm417.45 464.97l16.77 0 0 85.72 -16.77 0c-70.2,0 -130.3,-25 -180.31,-75 -50,-50.01 -75.01,-110.12 -75.01,-180.31l0 -130.46 -81.07 0 0 -84.79 81.07 0 0 -68.02c0,-13.05 -4.35,-24.54 -13.04,-34.48l40.06 -77.34c18.02,13.05 32.15,29.35 42.4,48.92 10.25,19.57 15.38,40.53 15.38,62.9l0 68.02 138.84 0 0 84.79 -138.84 0 0 130.46c0,46.59 16.61,86.5 49.85,119.74 33.23,33.23 73.46,49.85 120.67,49.85zm205.93 0l419.31 0 0 84.79 -533.93 0 0 -95.97 405.34 -366.21 -413.72 0 0 -84.79 532.06 0 0 93.18 -409.06 369zm910.38 -462.18l90.38 0 -205 559.08 -13.97 36.35c-20.5,56.53 -57.78,97.22 -111.82,122.06 -29.2,13.67 -59.33,20.5 -90.39,20.5 -19.25,0 -38.2,-2.79 -56.84,-8.38l28.89 -80.14c9.32,1.86 18.63,2.8 27.95,2.8 26.09,0 50.01,-7.15 71.75,-21.44 21.74,-14.28 37.9,-33.54 48.45,-57.77 1.25,-3.1 2.18,-5.28 2.8,-6.52l1.87 -6.52 -1.87 -8.39 -232.95 -551.63 92.25 0 186.36 440.74 162.14 -440.74z"/>
  <path class="fil3" d="M20781.21 14481.21l29.64 0 0 211.67 -29.64 0 0 -211.67zm270.04 0l0 211.67 -27.82 0 -122.47 -164.5 0 164.5 -29.03 0 0 -211.67 27.52 0 122.77 164.5 0 -164.5 29.03 0zm107.04 27.51l-69.55 0 0 -27.51 168.73 0 0 27.51 -69.55 0 0 184.16 -29.63 0 0 -184.16zm286.06 156.94l0 27.22 -149.08 0 0 -211.67 146.05 0 0 27.21 -116.42 0 0 64.11 110.07 0 0 26.91 -110.07 0 0 66.22 119.45 0zm192.32 -0.3l0 27.52 -140.31 0 0 -211.67 29.63 0 0 184.15 110.68 0zm40.21 -184.15l29.64 0 0 211.67 -29.64 0 0 -211.67zm275.78 97.37l0 84.36c-8.26,10.69 -19.8,19.05 -34.62,25.1 -14.82,6.05 -31.4,9.07 -49.75,9.07 -22.78,0 -42.63,-4.63 -59.57,-13.91 -16.93,-9.27 -29.98,-22.22 -39.16,-38.85 -9.17,-16.64 -13.75,-35.53 -13.75,-56.7 0,-21.57 4.63,-40.72 13.91,-57.46 9.27,-16.73 22.12,-29.78 38.55,-39.16 16.43,-9.37 35.13,-14.06 56.09,-14.06 18.55,0 35.03,3.63 49.44,10.89 14.42,7.26 25.86,17.44 34.33,30.54l-22.68 16.33c-6.45,-9.68 -14.87,-17.09 -25.25,-22.23 -10.39,-5.14 -22.23,-7.71 -35.53,-7.71 -15.53,0 -29.13,3.43 -40.83,10.28 -11.69,6.86 -20.76,16.59 -27.21,29.19 -6.45,12.59 -9.68,27.16 -9.68,43.69 0,16.93 3.33,31.5 9.98,43.7 6.65,12.19 16.08,21.57 28.27,28.12 12.2,6.55 26.56,9.83 43.09,9.83 12.1,0 23.04,-1.62 32.81,-4.84 9.78,-3.23 17.49,-7.56 23.14,-13.01l0 -46.56 -54.43 0 0 -26.61 82.85 0zm199.58 87.08l0 27.22 -149.08 0 0 -211.67 146.05 0 0 27.21 -116.42 0 0 64.11 110.07 0 0 26.91 -110.07 0 0 66.22 119.45 0zm-51.41 -209.85l-26.31 -28.73 -26.3 28.73 -28.73 0 41.73 -45.36 26.61 0 41.73 45.36 -28.73 0zm282.74 25.4l0 211.67 -27.82 0 -122.47 -164.5 0 164.5 -29.03 0 0 -211.67 27.52 0 122.77 164.5 0 -164.5 29.03 0zm155.42 215.9c-20.76,0 -39.26,-4.78 -55.49,-14.36 -16.22,-9.58 -28.87,-22.73 -37.95,-39.46 -9.07,-16.73 -13.6,-35.48 -13.6,-56.25 0,-20.56 4.53,-39.21 13.6,-55.94 9.08,-16.73 21.78,-29.94 38.1,-39.61 16.33,-9.68 34.78,-14.52 55.34,-14.52 20.36,0 38.71,4.69 55.04,14.06 16.33,9.38 28.93,23.04 37.8,40.98l-24.8 13.91c-7.06,-13.71 -16.23,-23.99 -27.52,-30.85 -11.29,-6.85 -24.19,-10.28 -38.7,-10.28 -15.32,0 -28.88,3.53 -40.68,10.59 -11.79,7.05 -20.91,16.83 -27.36,29.33 -6.45,12.5 -9.68,26.61 -9.68,42.33 0,15.73 3.23,29.84 9.68,42.34 6.45,12.5 15.57,22.27 27.36,29.33 11.8,7.06 25.36,10.58 40.68,10.58 14.51,0 27.46,-3.42 38.85,-10.28 11.39,-6.85 20.62,-17.13 27.67,-30.84l24.5 13.91c-8.87,17.94 -21.47,31.6 -37.8,40.97 -16.33,9.38 -34.68,14.06 -55.04,14.06zm134.26 -215.9l29.64 0 0 211.67 -29.64 0 0 -211.67zm218.03 156.03l-98.89 0 -21.77 55.64 -30.84 0 85.57 -211.67 33.27 0 85.27 211.67 -30.84 0 -21.77 -55.64zm-10.29 -26.31l-39 -100.69 -39.32 100.69 78.32 0zm-2053.51 279.71l-69.55 0 0 -27.51 168.73 0 0 27.51 -69.55 0 0 184.16 -29.63 0 0 -184.16zm198.67 101.61l-32.06 0 0 82.55 -29.63 0 0 -211.67 88.3 0c22.58,0 40.21,5.79 52.92,17.38 12.7,11.6 19.05,27.57 19.05,47.93 0,18.95 -5.6,33.92 -16.79,44.91 -11.19,10.98 -26.96,17.18 -47.32,18.6l68.94 82.85 -35.68 0 -67.73 -82.55zm-32.06 -26.61l56.25 0c15.32,0 26.36,-2.98 33.11,-8.92 6.75,-5.95 10.13,-15.37 10.13,-28.28 0,-13.1 -3.43,-22.73 -10.28,-28.88 -6.86,-6.14 -17.84,-9.22 -32.96,-9.22l-56.25 0 0 75.3zm181.13 -102.51l29.64 0 0 211.67 -29.64 0 0 -211.67zm211.37 102.51c13.91,3.22 24.65,9.27 32.21,18.14 7.56,8.87 11.34,20.16 11.34,33.87 0,17.34 -6,31.19 -18,41.58 -11.99,10.38 -28.37,15.57 -49.13,15.57l-97.07 0 0 -211.67 89.81 0c20.36,0 36.54,4.99 48.53,14.97 12,9.97 17.99,23.23 17.99,39.76 0,11.69 -3.07,21.62 -9.22,29.79 -6.15,8.16 -14.97,14.16 -26.46,17.99zm-91.02 -75.9l0 63.8 58.06 0c12.7,0 22.28,-2.77 28.73,-8.31 6.45,-5.55 9.68,-13.46 9.68,-23.74 0,-10.28 -3.23,-18.15 -9.68,-23.59 -6.45,-5.44 -16.03,-8.16 -28.73,-8.16l-58.06 0zm65.32 158.45c12.7,0 22.28,-2.97 28.73,-8.92 6.45,-5.95 9.67,-14.36 9.67,-25.25 0,-10.89 -3.22,-19.3 -9.67,-25.25 -6.45,-5.95 -16.03,-8.92 -28.73,-8.92l-65.32 0 0 68.34 65.32 0zm201.09 30.84c-27.01,0 -48.23,-7.05 -63.65,-21.16 -15.42,-14.12 -23.13,-33.87 -23.13,-59.27l0 -135.47 29.63 0 0 132.75c0,36.89 19.05,55.33 57.15,55.33 38.1,0 57.15,-18.44 57.15,-55.33l0 -132.75 29.64 0 0 135.47c0,25.4 -7.71,45.15 -23.14,59.27 -15.42,14.11 -36.64,21.16 -63.65,21.16zm191.11 -188.39l-69.55 0 0 -27.51 168.73 0 0 27.51 -69.55 0 0 184.16 -29.63 0 0 -184.16zm236.78 128.52l-98.89 0 -21.77 55.64 -30.84 0 85.57 -211.67 33.27 0 85.27 211.67 -30.84 0 -21.77 -55.64zm-10.29 -26.31l-39 -100.69 -39.32 100.69 78.32 0zm-27.51 -200.48l34.77 0 -39.61 45.36 -29.33 0 34.17 -45.36zm188.69 199.88l-32.06 0 0 82.55 -29.63 0 0 -211.67 88.3 0c22.58,0 40.21,5.79 52.92,17.38 12.7,11.6 19.05,27.57 19.05,47.93 0,18.95 -5.6,33.92 -16.79,44.91 -11.19,10.98 -26.96,17.18 -47.32,18.6l68.94 82.85 -35.68 0 -67.73 -82.55zm-32.06 -26.61l56.25 0c15.32,0 26.36,-2.98 33.11,-8.92 6.75,-5.95 10.13,-15.37 10.13,-28.28 0,-13.1 -3.43,-22.73 -10.28,-28.88 -6.86,-6.14 -17.84,-9.22 -32.96,-9.22l-56.25 0 0 75.3zm181.13 -102.51l29.64 0 0 211.67 -29.64 0 0 -211.67zm218.03 156.03l-98.89 0 -21.77 55.64 -30.84 0 85.57 -211.67 33.27 0 85.27 211.67 -30.84 0 -21.77 -55.64zm-10.29 -26.31l-39 -100.69 -39.32 100.69 78.32 0z"/>
  <polygon class="fil0" points="18304.48,13574.81 18461.2,13574.81 19088.06,13809.89 19088.06,13966.6 18461.2,14201.68 18304.48,14201.68 "/>
  <polygon class="fil0" points="18304.48,13378.92 18461.2,13378.92 19088.06,13613.99 19088.06,13731.53 18461.2,13496.45 18304.48,13496.45 "/>
  <polygon class="fil0" points="19088.06,14162.5 18461.2,14397.57 18304.48,14397.57 18304.48,14280.03 18461.2,14280.03 19088.06,14044.96 "/>
  <path class="fil1" d="M7663.34 6426.27l0 41.93 -439.81 0c0.62,9.32 2.02,18.95 4.19,28.89 2.18,9.94 8.55,25 19.11,45.19 10.56,20.19 24.22,37.43 41,51.72 32.92,26.71 70.81,40.38 113.68,41l20.5 0c31.06,0 60.1,-7.77 87.12,-23.3 27.02,-15.53 48.3,-36.34 63.83,-62.43l77.34 35.41c-22.98,41.62 -54.98,74.54 -95.98,98.77 -41,24.23 -85.1,36.34 -132.31,36.34l-20.5 0c-72.06,0 -133.72,-25.47 -184.97,-76.41 -51.25,-50.93 -76.87,-112.75 -76.87,-185.43l0 -24.22c0,-72.06 25.62,-133.72 76.87,-184.97 51.25,-51.25 112.91,-76.87 184.97,-76.87l7.45 0c70.2,0 130.14,24.84 179.84,74.54 49.7,49.7 74.54,109.65 74.54,179.84zm-434.22 -42.86l345.7 0c-12.42,-42.87 -36.96,-75.79 -73.61,-98.77 -27.33,-18.02 -58.08,-27.34 -92.25,-27.96l-7.45 0c-34.17,0.62 -65.54,9.94 -94.12,27.96 -37.27,22.98 -63.36,55.9 -78.27,98.77zm774.34 56.84l218.04 280.47 -108.09 0 -169.59 -218.97 -158.41 218.97 -105.29 0 209.66 -289.79 -168.66 -258.11 101.57 0 127.65 194.75 133.25 -194.75 102.5 0 -182.63 267.43zm551.63 -268.36c72.06,0 133.71,25.62 184.96,76.87 51.25,51.25 76.87,112.91 76.87,184.97l0 24.22c0,72.68 -25.62,134.5 -76.87,185.43 -51.25,50.94 -112.9,76.41 -184.96,76.41 -54.05,0 -103.43,-15.22 -148.16,-45.66l-28.89 -19.57 0 138.85c0,22.36 -4.97,43.48 -14.9,63.36 -9.95,19.88 -24.23,36.03 -42.87,48.45l-40.07 -76.41c8.7,-9.94 13.05,-21.74 13.05,-35.4l0 -621.52 261.84 0zm177.04 286.06l0 -24.22c0,-48.46 -17.24,-90.08 -51.72,-124.87 -34.47,-34.78 -76.25,-52.18 -125.32,-52.18l-177.05 0 0 201.27c0,49.08 17.4,90.85 52.18,125.33 34.79,34.48 76.57,51.72 125.33,51.72 48.77,0 90.39,-17.24 124.86,-51.72 34.48,-34.48 51.72,-76.25 51.72,-125.33zm682.08 -31.68l0 41.93 -439.81 0c0.62,9.32 2.02,18.95 4.19,28.89 2.18,9.94 8.55,25 19.1,45.19 10.56,20.19 24.23,37.43 41.01,51.72 32.92,26.71 70.81,40.38 113.67,41l20.5 0c31.06,0 60.11,-7.77 87.13,-23.3 27.02,-15.53 48.3,-36.34 63.83,-62.43l77.34 35.41c-22.98,41.62 -54.98,74.54 -95.98,98.77 -41,24.23 -85.1,36.34 -132.32,36.34l-20.5 0c-72.06,0 -133.71,-25.47 -184.96,-76.41 -51.25,-50.93 -76.88,-112.75 -76.88,-185.43l0 -24.22c0,-72.06 25.63,-133.72 76.88,-184.97 51.25,-51.25 112.9,-76.87 184.96,-76.87l7.46 0c70.19,0 130.14,24.84 179.84,74.54 49.7,49.7 74.54,109.65 74.54,179.84zm-434.22 -42.86l345.7 0c-12.42,-42.87 -36.96,-75.79 -73.61,-98.77 -27.33,-18.02 -58.08,-27.34 -92.25,-27.96l-7.46 0c-34.16,0.62 -65.53,9.94 -94.11,27.96 -37.27,22.98 -63.36,55.9 -78.27,98.77zm785.52 -213.38l16.77 0 0 84.79 -16.77 0c-46.6,0 -86.66,16.62 -120.21,49.85 -33.54,33.24 -50.32,73.46 -50.32,120.67l0 181.7c0,22.37 -4.97,43.33 -14.91,62.9 -9.93,19.57 -24.22,35.87 -42.86,48.92l-40.07 -77.34c8.7,-9.94 13.05,-21.43 13.05,-34.48l0 -433.29 84.79 0 0 58.71 28.89 -19.57c42.86,-28.58 90.08,-42.86 141.64,-42.86zm417.45 464.97l16.77 0 0 85.72 -16.77 0c-70.2,0 -130.3,-25 -180.31,-75 -50,-50.01 -75.01,-110.12 -75.01,-180.31l0 -130.46 -81.07 0 0 -84.79 81.07 0 0 -68.02c0,-13.05 -4.35,-24.54 -13.04,-34.48l40.06 -77.34c18.02,13.05 32.15,29.35 42.4,48.92 10.25,19.57 15.38,40.53 15.38,62.9l0 68.02 138.84 0 0 84.79 -138.84 0 0 130.46c0,46.59 16.61,86.5 49.85,119.74 33.23,33.23 73.46,49.85 120.67,49.85zm205.93 0l419.31 0 0 84.79 -533.93 0 0 -95.97 405.34 -366.21 -413.72 0 0 -84.79 532.06 0 0 93.18 -409.06 369zm910.38 -462.18l90.38 0 -205 559.08 -13.97 36.35c-20.5,56.53 -57.78,97.22 -111.82,122.06 -29.2,13.67 -59.33,20.5 -90.39,20.5 -19.25,0 -38.2,-2.79 -56.84,-8.38l28.89 -80.14c9.32,1.86 18.63,2.8 27.95,2.8 26.09,0 50.01,-7.15 71.75,-21.44 21.74,-14.28 37.9,-33.54 48.45,-57.77 1.25,-3.1 2.18,-5.28 2.8,-6.52l1.87 -6.52 -1.87 -8.39 -232.95 -551.63 92.25 0 186.36 440.74 162.14 -440.74z"/>
  <path class="fil1" d="M8575.1 7037.6l29.64 0 0 211.67 -29.64 0 0 -211.67zm270.04 0l0 211.67 -27.82 0 -122.47 -164.5 0 164.5 -29.03 0 0 -211.67 27.52 0 122.77 164.5 0 -164.5 29.03 0zm107.04 27.51l-69.55 0 0 -27.51 168.73 0 0 27.51 -69.55 0 0 184.16 -29.63 0 0 -184.16zm286.06 156.94l0 27.22 -149.08 0 0 -211.67 146.05 0 0 27.21 -116.42 0 0 64.11 110.07 0 0 26.91 -110.07 0 0 66.22 119.45 0zm192.32 -0.3l0 27.52 -140.31 0 0 -211.67 29.63 0 0 184.15 110.68 0zm40.21 -184.15l29.64 0 0 211.67 -29.64 0 0 -211.67zm275.78 97.37l0 84.36c-8.26,10.69 -19.8,19.05 -34.62,25.1 -14.82,6.05 -31.4,9.07 -49.75,9.07 -22.78,0 -42.63,-4.63 -59.57,-13.91 -16.93,-9.27 -29.98,-22.22 -39.16,-38.85 -9.17,-16.64 -13.75,-35.53 -13.75,-56.7 0,-21.57 4.63,-40.72 13.91,-57.46 9.27,-16.73 22.12,-29.78 38.55,-39.16 16.43,-9.37 35.13,-14.06 56.09,-14.06 18.55,0 35.03,3.63 49.44,10.89 14.42,7.26 25.86,17.44 34.33,30.54l-22.68 16.33c-6.45,-9.68 -14.87,-17.09 -25.25,-22.23 -10.39,-5.14 -22.23,-7.71 -35.53,-7.71 -15.53,0 -29.13,3.43 -40.83,10.28 -11.69,6.86 -20.76,16.59 -27.21,29.19 -6.45,12.59 -9.68,27.16 -9.68,43.69 0,16.93 3.33,31.5 9.98,43.7 6.65,12.19 16.08,21.57 28.27,28.12 12.2,6.55 26.56,9.83 43.09,9.83 12.1,0 23.04,-1.62 32.81,-4.84 9.78,-3.23 17.49,-7.56 23.14,-13.01l0 -46.56 -54.43 0 0 -26.61 82.85 0zm199.58 87.08l0 27.22 -149.08 0 0 -211.67 146.05 0 0 27.21 -116.42 0 0 64.11 110.07 0 0 26.91 -110.07 0 0 66.22 119.45 0zm-51.41 -209.85l-26.31 -28.73 -26.3 28.73 -28.73 0 41.73 -45.36 26.61 0 41.73 45.36 -28.73 0zm282.74 25.4l0 211.67 -27.82 0 -122.47 -164.5 0 164.5 -29.03 0 0 -211.67 27.52 0 122.77 164.5 0 -164.5 29.03 0zm155.42 215.9c-20.76,0 -39.26,-4.78 -55.49,-14.36 -16.22,-9.58 -28.87,-22.73 -37.95,-39.46 -9.07,-16.73 -13.6,-35.48 -13.6,-56.25 0,-20.56 4.53,-39.21 13.6,-55.94 9.08,-16.73 21.78,-29.94 38.1,-39.61 16.33,-9.68 34.78,-14.52 55.34,-14.52 20.36,0 38.71,4.69 55.04,14.06 16.33,9.38 28.93,23.04 37.8,40.98l-24.8 13.91c-7.06,-13.71 -16.23,-23.99 -27.52,-30.85 -11.29,-6.85 -24.19,-10.28 -38.7,-10.28 -15.32,0 -28.88,3.53 -40.68,10.59 -11.79,7.05 -20.91,16.83 -27.36,29.33 -6.45,12.5 -9.68,26.61 -9.68,42.33 0,15.73 3.23,29.84 9.68,42.34 6.45,12.5 15.57,22.27 27.36,29.33 11.8,7.06 25.36,10.58 40.68,10.58 14.51,0 27.46,-3.42 38.85,-10.28 11.39,-6.85 20.62,-17.13 27.67,-30.84l24.5 13.91c-8.87,17.94 -21.47,31.6 -37.8,40.97 -16.33,9.38 -34.68,14.06 -55.04,14.06zm134.26 -215.9l29.64 0 0 211.67 -29.64 0 0 -211.67zm218.03 156.03l-98.89 0 -21.77 55.64 -30.84 0 85.57 -211.67 33.27 0 85.27 211.67 -30.84 0 -21.77 -55.64zm-10.29 -26.31l-39 -100.69 -39.32 100.69 78.32 0zm-2053.51 279.71l-69.55 0 0 -27.51 168.73 0 0 27.51 -69.55 0 0 184.16 -29.63 0 0 -184.16zm198.67 101.61l-32.06 0 0 82.55 -29.63 0 0 -211.67 88.3 0c22.58,0 40.21,5.79 52.92,17.38 12.7,11.6 19.05,27.57 19.05,47.93 0,18.95 -5.6,33.92 -16.79,44.91 -11.19,10.98 -26.96,17.18 -47.32,18.6l68.94 82.85 -35.68 0 -67.73 -82.55zm-32.06 -26.61l56.25 0c15.32,0 26.36,-2.98 33.11,-8.92 6.75,-5.95 10.13,-15.37 10.13,-28.28 0,-13.1 -3.43,-22.73 -10.28,-28.88 -6.86,-6.14 -17.84,-9.22 -32.96,-9.22l-56.25 0 0 75.3zm181.13 -102.51l29.64 0 0 211.67 -29.64 0 0 -211.67zm211.37 102.51c13.91,3.22 24.65,9.27 32.21,18.14 7.56,8.87 11.34,20.16 11.34,33.87 0,17.34 -6,31.19 -18,41.58 -11.99,10.38 -28.37,15.57 -49.13,15.57l-97.07 0 0 -211.67 89.81 0c20.36,0 36.54,4.99 48.53,14.97 12,9.97 17.99,23.23 17.99,39.76 0,11.69 -3.07,21.62 -9.22,29.79 -6.15,8.16 -14.97,14.16 -26.46,17.99zm-91.02 -75.9l0 63.8 58.06 0c12.7,0 22.28,-2.77 28.73,-8.31 6.45,-5.55 9.68,-13.46 9.68,-23.74 0,-10.28 -3.23,-18.15 -9.68,-23.59 -6.45,-5.44 -16.03,-8.16 -28.73,-8.16l-58.06 0zm65.32 158.45c12.7,0 22.28,-2.97 28.73,-8.92 6.45,-5.95 9.67,-14.36 9.67,-25.25 0,-10.89 -3.22,-19.3 -9.67,-25.25 -6.45,-5.95 -16.03,-8.92 -28.73,-8.92l-65.32 0 0 68.34 65.32 0zm201.09 30.84c-27.01,0 -48.23,-7.05 -63.65,-21.16 -15.42,-14.12 -23.13,-33.87 -23.13,-59.27l0 -135.47 29.63 0 0 132.75c0,36.89 19.05,55.33 57.15,55.33 38.1,0 57.15,-18.44 57.15,-55.33l0 -132.75 29.64 0 0 135.47c0,25.4 -7.71,45.15 -23.14,59.27 -15.42,14.11 -36.64,21.16 -63.65,21.16zm191.11 -188.39l-69.55 0 0 -27.51 168.73 0 0 27.51 -69.55 0 0 184.16 -29.63 0 0 -184.16zm236.78 128.52l-98.89 0 -21.77 55.64 -30.84 0 85.57 -211.67 33.27 0 85.27 211.67 -30.84 0 -21.77 -55.64zm-10.29 -26.31l-39 -100.69 -39.32 100.69 78.32 0zm-27.51 -200.48l34.77 0 -39.61 45.36 -29.33 0 34.17 -45.36zm188.69 199.88l-32.06 0 0 82.55 -29.63 0 0 -211.67 88.3 0c22.58,0 40.21,5.79 52.92,17.38 12.7,11.6 19.05,27.57 19.05,47.93 0,18.95 -5.6,33.92 -16.79,44.91 -11.19,10.98 -26.96,17.18 -47.32,18.6l68.94 82.85 -35.68 0 -67.73 -82.55zm-32.06 -26.61l56.25 0c15.32,0 26.36,-2.98 33.11,-8.92 6.75,-5.95 10.13,-15.37 10.13,-28.28 0,-13.1 -3.43,-22.73 -10.28,-28.88 -6.86,-6.14 -17.84,-9.22 -32.96,-9.22l-56.25 0 0 75.3zm181.13 -102.51l29.64 0 0 211.67 -29.64 0 0 -211.67zm218.03 156.03l-98.89 0 -21.77 55.64 -30.84 0 85.57 -211.67 33.27 0 85.27 211.67 -30.84 0 -21.77 -55.64zm-10.29 -26.31l-39 -100.69 -39.32 100.69 78.32 0z"/>
  <polygon class="fil2" points="6098.37,6131.2 6255.09,6131.2 6881.95,6366.28 6881.95,6522.99 6255.09,6758.07 6098.37,6758.07 "/>
  <polygon class="fil2" points="6098.37,5935.31 6255.09,5935.31 6881.95,6170.38 6881.95,6287.92 6255.09,6052.84 6098.37,6052.84 "/>
  <polygon class="fil2" points="6881.95,6718.89 6255.09,6953.96 6098.37,6953.96 6098.37,6836.42 6255.09,6836.42 6881.95,6601.35 "/>
  <rect class="fil1" x="2640.96" y="10507.17" width="12206.11" height="7443.61"/>
  <path class="fil3" d="M7663.34 13869.88l0 41.93 -439.81 0c0.62,9.32 2.02,18.95 4.19,28.89 2.18,9.94 8.55,25 19.11,45.19 10.56,20.19 24.22,37.43 41,51.72 32.92,26.71 70.81,40.38 113.68,41l20.5 0c31.06,0 60.1,-7.77 87.12,-23.3 27.02,-15.53 48.3,-36.34 63.83,-62.43l77.34 35.41c-22.98,41.62 -54.98,74.54 -95.98,98.77 -41,24.23 -85.1,36.34 -132.31,36.34l-20.5 0c-72.06,0 -133.72,-25.47 -184.97,-76.41 -51.25,-50.93 -76.87,-112.75 -76.87,-185.43l0 -24.22c0,-72.06 25.62,-133.72 76.87,-184.97 51.25,-51.25 112.91,-76.87 184.97,-76.87l7.45 0c70.2,0 130.14,24.84 179.84,74.54 49.7,49.7 74.54,109.65 74.54,179.84zm-434.22 -42.86l345.7 0c-12.42,-42.87 -36.96,-75.79 -73.61,-98.77 -27.33,-18.02 -58.08,-27.34 -92.25,-27.96l-7.45 0c-34.17,0.62 -65.54,9.94 -94.12,27.96 -37.27,22.98 -63.36,55.9 -78.27,98.77zm774.34 56.84l218.04 280.47 -108.09 0 -169.59 -218.97 -158.41 218.97 -105.29 0 209.66 -289.79 -168.66 -258.11 101.57 0 127.65 194.75 133.25 -194.75 102.5 0 -182.63 267.43zm551.63 -268.36c72.06,0 133.71,25.62 184.96,76.87 51.25,51.25 76.87,112.91 76.87,184.97l0 24.22c0,72.68 -25.62,134.5 -76.87,185.43 -51.25,50.94 -112.9,76.41 -184.96,76.41 -54.05,0 -103.43,-15.22 -148.16,-45.66l-28.89 -19.57 0 138.85c0,22.36 -4.97,43.48 -14.9,63.36 -9.95,19.88 -24.23,36.03 -42.87,48.45l-40.07 -76.41c8.7,-9.94 13.05,-21.74 13.05,-35.4l0 -621.52 261.84 0zm177.04 286.06l0 -24.22c0,-48.46 -17.24,-90.08 -51.72,-124.87 -34.47,-34.78 -76.25,-52.18 -125.32,-52.18l-177.05 0 0 201.27c0,49.08 17.4,90.85 52.18,125.33 34.79,34.48 76.57,51.72 125.33,51.72 48.77,0 90.39,-17.24 124.86,-51.72 34.48,-34.48 51.72,-76.25 51.72,-125.33zm682.08 -31.68l0 41.93 -439.81 0c0.62,9.32 2.02,18.95 4.19,28.89 2.18,9.94 8.55,25 19.1,45.19 10.56,20.19 24.23,37.43 41.01,51.72 32.92,26.71 70.81,40.38 113.67,41l20.5 0c31.06,0 60.11,-7.77 87.13,-23.3 27.02,-15.53 48.3,-36.34 63.83,-62.43l77.34 35.41c-22.98,41.62 -54.98,74.54 -95.98,98.77 -41,24.23 -85.1,36.34 -132.32,36.34l-20.5 0c-72.06,0 -133.71,-25.47 -184.96,-76.41 -51.25,-50.93 -76.88,-112.75 -76.88,-185.43l0 -24.22c0,-72.06 25.63,-133.72 76.88,-184.97 51.25,-51.25 112.9,-76.87 184.96,-76.87l7.46 0c70.19,0 130.14,24.84 179.84,74.54 49.7,49.7 74.54,109.65 74.54,179.84zm-434.22 -42.86l345.7 0c-12.42,-42.87 -36.96,-75.79 -73.61,-98.77 -27.33,-18.02 -58.08,-27.34 -92.25,-27.96l-7.46 0c-34.16,0.62 -65.53,9.94 -94.11,27.96 -37.27,22.98 -63.36,55.9 -78.27,98.77zm785.52 -213.38l16.77 0 0 84.79 -16.77 0c-46.6,0 -86.66,16.62 -120.21,49.85 -33.54,33.24 -50.32,73.46 -50.32,120.67l0 181.7c0,22.37 -4.97,43.33 -14.91,62.9 -9.93,19.57 -24.22,35.87 -42.86,48.92l-40.07 -77.34c8.7,-9.94 13.05,-21.43 13.05,-34.48l0 -433.29 84.79 0 0 58.71 28.89 -19.57c42.86,-28.58 90.08,-42.86 141.64,-42.86zm417.45 464.97l16.77 0 0 85.72 -16.77 0c-70.2,0 -130.3,-25 -180.31,-75 -50,-50.01 -75.01,-110.12 -75.01,-180.31l0 -130.46 -81.07 0 0 -84.79 81.07 0 0 -68.02c0,-13.05 -4.35,-24.54 -13.04,-34.48l40.06 -77.34c18.02,13.05 32.15,29.35 42.4,48.92 10.25,19.57 15.38,40.53 15.38,62.9l0 68.02 138.84 0 0 84.79 -138.84 0 0 130.46c0,46.59 16.61,86.5 49.85,119.74 33.23,33.23 73.46,49.85 120.67,49.85zm205.93 0l419.31 0 0 84.79 -533.93 0 0 -95.97 405.34 -366.21 -413.72 0 0 -84.79 532.06 0 0 93.18 -409.06 369zm910.38 -462.18l90.38 0 -205 559.08 -13.97 36.35c-20.5,56.53 -57.78,97.22 -111.82,122.06 -29.2,13.67 -59.33,20.5 -90.39,20.5 -19.25,0 -38.2,-2.79 -56.84,-8.38l28.89 -80.14c9.32,1.86 18.63,2.8 27.95,2.8 26.09,0 50.01,-7.15 71.75,-21.44 21.74,-14.28 37.9,-33.54 48.45,-57.77 1.25,-3.1 2.18,-5.28 2.8,-6.52l1.87 -6.52 -1.87 -8.39 -232.95 -551.63 92.25 0 186.36 440.74 162.14 -440.74z"/>
  <path class="fil3" d="M8575.1 14481.21l29.64 0 0 211.67 -29.64 0 0 -211.67zm270.04 0l0 211.67 -27.82 0 -122.47 -164.5 0 164.5 -29.03 0 0 -211.67 27.52 0 122.77 164.5 0 -164.5 29.03 0zm107.04 27.51l-69.55 0 0 -27.51 168.73 0 0 27.51 -69.55 0 0 184.16 -29.63 0 0 -184.16zm286.06 156.94l0 27.22 -149.08 0 0 -211.67 146.05 0 0 27.21 -116.42 0 0 64.11 110.07 0 0 26.91 -110.07 0 0 66.22 119.45 0zm192.32 -0.3l0 27.52 -140.31 0 0 -211.67 29.63 0 0 184.15 110.68 0zm40.21 -184.15l29.64 0 0 211.67 -29.64 0 0 -211.67zm275.78 97.37l0 84.36c-8.26,10.69 -19.8,19.05 -34.62,25.1 -14.82,6.05 -31.4,9.07 -49.75,9.07 -22.78,0 -42.63,-4.63 -59.57,-13.91 -16.93,-9.27 -29.98,-22.22 -39.16,-38.85 -9.17,-16.64 -13.75,-35.53 -13.75,-56.7 0,-21.57 4.63,-40.72 13.91,-57.46 9.27,-16.73 22.12,-29.78 38.55,-39.16 16.43,-9.37 35.13,-14.06 56.09,-14.06 18.55,0 35.03,3.63 49.44,10.89 14.42,7.26 25.86,17.44 34.33,30.54l-22.68 16.33c-6.45,-9.68 -14.87,-17.09 -25.25,-22.23 -10.39,-5.14 -22.23,-7.71 -35.53,-7.71 -15.53,0 -29.13,3.43 -40.83,10.28 -11.69,6.86 -20.76,16.59 -27.21,29.19 -6.45,12.59 -9.68,27.16 -9.68,43.69 0,16.93 3.33,31.5 9.98,43.7 6.65,12.19 16.08,21.57 28.27,28.12 12.2,6.55 26.56,9.83 43.09,9.83 12.1,0 23.04,-1.62 32.81,-4.84 9.78,-3.23 17.49,-7.56 23.14,-13.01l0 -46.56 -54.43 0 0 -26.61 82.85 0zm199.58 87.08l0 27.22 -149.08 0 0 -211.67 146.05 0 0 27.21 -116.42 0 0 64.11 110.07 0 0 26.91 -110.07 0 0 66.22 119.45 0zm-51.41 -209.85l-26.31 -28.73 -26.3 28.73 -28.73 0 41.73 -45.36 26.61 0 41.73 45.36 -28.73 0zm282.74 25.4l0 211.67 -27.82 0 -122.47 -164.5 0 164.5 -29.03 0 0 -211.67 27.52 0 122.77 164.5 0 -164.5 29.03 0zm155.42 215.9c-20.76,0 -39.26,-4.78 -55.49,-14.36 -16.22,-9.58 -28.87,-22.73 -37.95,-39.46 -9.07,-16.73 -13.6,-35.48 -13.6,-56.25 0,-20.56 4.53,-39.21 13.6,-55.94 9.08,-16.73 21.78,-29.94 38.1,-39.61 16.33,-9.68 34.78,-14.52 55.34,-14.52 20.36,0 38.71,4.69 55.04,14.06 16.33,9.38 28.93,23.04 37.8,40.98l-24.8 13.91c-7.06,-13.71 -16.23,-23.99 -27.52,-30.85 -11.29,-6.85 -24.19,-10.28 -38.7,-10.28 -15.32,0 -28.88,3.53 -40.68,10.59 -11.79,7.05 -20.91,16.83 -27.36,29.33 -6.45,12.5 -9.68,26.61 -9.68,42.33 0,15.73 3.23,29.84 9.68,42.34 6.45,12.5 15.57,22.27 27.36,29.33 11.8,7.06 25.36,10.58 40.68,10.58 14.51,0 27.46,-3.42 38.85,-10.28 11.39,-6.85 20.62,-17.13 27.67,-30.84l24.5 13.91c-8.87,17.94 -21.47,31.6 -37.8,40.97 -16.33,9.38 -34.68,14.06 -55.04,14.06zm134.26 -215.9l29.64 0 0 211.67 -29.64 0 0 -211.67zm218.03 156.03l-98.89 0 -21.77 55.64 -30.84 0 85.57 -211.67 33.27 0 85.27 211.67 -30.84 0 -21.77 -55.64zm-10.29 -26.31l-39 -100.69 -39.32 100.69 78.32 0zm-2053.51 279.71l-69.55 0 0 -27.51 168.73 0 0 27.51 -69.55 0 0 184.16 -29.63 0 0 -184.16zm198.67 101.61l-32.06 0 0 82.55 -29.63 0 0 -211.67 88.3 0c22.58,0 40.21,5.79 52.92,17.38 12.7,11.6 19.05,27.57 19.05,47.93 0,18.95 -5.6,33.92 -16.79,44.91 -11.19,10.98 -26.96,17.18 -47.32,18.6l68.94 82.85 -35.68 0 -67.73 -82.55zm-32.06 -26.61l56.25 0c15.32,0 26.36,-2.98 33.11,-8.92 6.75,-5.95 10.13,-15.37 10.13,-28.28 0,-13.1 -3.43,-22.73 -10.28,-28.88 -6.86,-6.14 -17.84,-9.22 -32.96,-9.22l-56.25 0 0 75.3zm181.13 -102.51l29.64 0 0 211.67 -29.64 0 0 -211.67zm211.37 102.51c13.91,3.22 24.65,9.27 32.21,18.14 7.56,8.87 11.34,20.16 11.34,33.87 0,17.34 -6,31.19 -18,41.58 -11.99,10.38 -28.37,15.57 -49.13,15.57l-97.07 0 0 -211.67 89.81 0c20.36,0 36.54,4.99 48.53,14.97 12,9.97 17.99,23.23 17.99,39.76 0,11.69 -3.07,21.62 -9.22,29.79 -6.15,8.16 -14.97,14.16 -26.46,17.99zm-91.02 -75.9l0 63.8 58.06 0c12.7,0 22.28,-2.77 28.73,-8.31 6.45,-5.55 9.68,-13.46 9.68,-23.74 0,-10.28 -3.23,-18.15 -9.68,-23.59 -6.45,-5.44 -16.03,-8.16 -28.73,-8.16l-58.06 0zm65.32 158.45c12.7,0 22.28,-2.97 28.73,-8.92 6.45,-5.95 9.67,-14.36 9.67,-25.25 0,-10.89 -3.22,-19.3 -9.67,-25.25 -6.45,-5.95 -16.03,-8.92 -28.73,-8.92l-65.32 0 0 68.34 65.32 0zm201.09 30.84c-27.01,0 -48.23,-7.05 -63.65,-21.16 -15.42,-14.12 -23.13,-33.87 -23.13,-59.27l0 -135.47 29.63 0 0 132.75c0,36.89 19.05,55.33 57.15,55.33 38.1,0 57.15,-18.44 57.15,-55.33l0 -132.75 29.64 0 0 135.47c0,25.4 -7.71,45.15 -23.14,59.27 -15.42,14.11 -36.64,21.16 -63.65,21.16zm191.11 -188.39l-69.55 0 0 -27.51 168.73 0 0 27.51 -69.55 0 0 184.16 -29.63 0 0 -184.16zm236.78 128.52l-98.89 0 -21.77 55.64 -30.84 0 85.57 -211.67 33.27 0 85.27 211.67 -30.84 0 -21.77 -55.64zm-10.29 -26.31l-39 -100.69 -39.32 100.69 78.32 0zm-27.51 -200.48l34.77 0 -39.61 45.36 -29.33 0 34.17 -45.36zm188.69 199.88l-32.06 0 0 82.55 -29.63 0 0 -211.67 88.3 0c22.58,0 40.21,5.79 52.92,17.38 12.7,11.6 19.05,27.57 19.05,47.93 0,18.95 -5.6,33.92 -16.79,44.91 -11.19,10.98 -26.96,17.18 -47.32,18.6l68.94 82.85 -35.68 0 -67.73 -82.55zm-32.06 -26.61l56.25 0c15.32,0 26.36,-2.98 33.11,-8.92 6.75,-5.95 10.13,-15.37 10.13,-28.28 0,-13.1 -3.43,-22.73 -10.28,-28.88 -6.86,-6.14 -17.84,-9.22 -32.96,-9.22l-56.25 0 0 75.3zm181.13 -102.51l29.64 0 0 211.67 -29.64 0 0 -211.67zm218.03 156.03l-98.89 0 -21.77 55.64 -30.84 0 85.57 -211.67 33.27 0 85.27 211.67 -30.84 0 -21.77 -55.64zm-10.29 -26.31l-39 -100.69 -39.32 100.69 78.32 0z"/>
  <polygon class="fil3" points="6098.37,13574.81 6255.09,13574.81 6881.95,13809.89 6881.95,13966.6 6255.09,14201.68 6098.37,14201.68 "/>
  <polygon class="fil3" points="6098.37,13378.92 6255.09,13378.92 6881.95,13613.99 6881.95,13731.53 6255.09,13496.45 6098.37,13496.45 "/>
  <polygon class="fil3" points="6881.95,14162.5 6255.09,14397.57 6098.37,14397.57 6098.37,14280.03 6255.09,14280.03 6881.95,14044.96 "/>
 </g>
</svg>
